<svg width="27" height="26" viewBox="0 0 27 26" fill="none" xmlns="http://www.w3.org/2000/svg">
<path d="M26.4914 13.7868L13.1755 25.1051C13.0733 25.1914 12.9429 25.2397 12.8054 25.2397L9.68615 25.2397C9.42533 25.2397 9.3055 24.9222 9.50288 24.7565L21.846 14.2631L1.22008 14.2631C1.065 14.2631 0.938111 14.1389 0.938111 13.987L0.938112 11.9159C0.938112 11.764 1.065 11.6398 1.22008 11.6398L21.8425 11.6398L9.49935 1.14642C9.30198 0.977279 9.42181 0.66317 9.68263 0.66317L12.9076 0.66317C12.9746 0.66317 13.0416 0.687333 13.0909 0.732206L26.4914 12.1161C26.6134 12.22 26.7113 12.3484 26.7783 12.4925C26.8454 12.6366 26.88 12.7931 26.88 12.9515C26.88 13.1098 26.8454 13.2663 26.7783 13.4104C26.7113 13.5545 26.6134 13.6829 26.4914 13.7868Z" fill="white"/>
</svg>
