<svg width="27" height="26" viewBox="0 0 27 26" fill="none" xmlns="http://www.w3.org/2000/svg">
<path d="M0.946078 12.1153L14.262 0.796972C14.3642 0.710678 14.4946 0.662354 14.6321 0.662354L17.7513 0.662354C18.0122 0.662354 18.132 0.979916 17.9346 1.1456L5.59149 11.639L26.2174 11.639C26.3725 11.639 26.4994 11.7632 26.4994 11.9151V13.9862C26.4994 14.1381 26.3725 14.2623 26.2174 14.2623L5.59502 14.2623L17.9381 24.7557C18.1355 24.9248 18.0157 25.2389 17.7549 25.2389H14.5299C14.4629 25.2389 14.3959 25.2148 14.3466 25.1699L0.946078 13.786C0.824061 13.6821 0.726228 13.5537 0.659186 13.4096C0.592144 13.2655 0.557452 13.109 0.557452 12.9506C0.557452 12.7923 0.592144 12.6358 0.659186 12.4917C0.726228 12.3476 0.824061 12.2192 0.946078 12.1153Z" fill="white"/>
</svg>
